<?xml version="1.0" encoding="utf-8"?>
<!-- Generator: Adobe Illustrator 21.0.0, SVG Export Plug-In . SVG Version: 6.00 Build 0)  -->
<svg version="1.1" id="Capa_1" xmlns="http://www.w3.org/2000/svg" xmlns:xlink="http://www.w3.org/1999/xlink" x="0px" y="0px"
	 viewBox="0 0 948.8 948.8" style="enable-background:new 0 0 948.8 948.8;" xml:space="preserve">
<style type="text/css">
	.st0{fill:#FFFFFF;}
</style>
<g id="column">
	<path class="st0" d="M187.3,430.2V878H308V392.1h-45.1C241.7,410.8,215.8,424.2,187.3,430.2z"/>
	<polygon class="st0" points="343,392.1 343,870.3 343,878 456.9,878 456.9,870.3 456.9,392.1 456.9,390.4 343,390.4 	"/>
	<path class="st0" d="M640.8,392.1V878h120.7V430.2c-28.6-6.1-54.4-19.5-75.6-38.1H640.8z"/>
	<path class="st0" d="M773.2,70.8H175.6C78.8,70.8,0,149.6,0,246.4c0,84.1,68.4,152.5,152.5,152.5c38,0,75.2-17.2,100-45.9
		c19.7-22.8,31.7-52.4,32-84.7c-0.8-47.4-37.6-85.7-82.8-85.7c-45.6,0-82.8,39.2-82.8,87.3H84c0-67.4,52.8-122.3,117.8-122.3
		c12.1,0,23.7,1.9,34.7,5.4c37.1,11.9,66.1,42.7,77.5,79.7c12.3,40,2.9,85.1-18.4,120.3h357.6c-21.3-35.2-30.7-80.3-18.4-120.3
		c11.4-37,40.4-67.8,77.5-79.7c11-3.5,22.6-5.4,34.7-5.4c64.9,0,117.8,54.9,117.8,122.3h-35c0-48.1-37.1-87.3-82.8-87.3
		c-45.2,0-82,38.3-82.8,85.7c0.4,32.3,12.4,61.9,32,84.7c24.8,28.8,62,45.9,100,45.9c84.1,0,152.5-68.4,152.5-152.5
		C948.8,149.6,870,70.8,773.2,70.8z"/>
	<polygon class="st0" points="491.9,392.1 491.9,870.3 491.9,878 605.8,878 605.8,870.3 605.8,392.1 605.8,390.4 491.9,390.4 	"/>
</g>
</svg>
